<svg preserveAspectRatio="none" width="100%" height="100%" overflow="visible" style="display: block;" viewBox="0 0 21.0015 12" fill="none" xmlns="http://www.w3.org/2000/svg">
<path id="border" opacity="0.4" d="M2.86476 0.5C2.21704 0.515995 1.60208 0.788118 1.15464 1.25673C0.70721 1.72535 0.463801 2.35223 0.477762 3V9C0.463798 9.6476 0.70707 10.2743 1.15429 10.7429C1.60151 11.2115 2.21622 11.4837 2.86376 11.5H18.1368C18.7845 11.484 19.3994 11.2119 19.8469 10.7433C20.2943 10.2747 20.5377 9.64777 20.5238 9V3C20.5377 2.35223 20.2943 1.72535 19.8469 1.25673C19.3994 0.788118 18.7845 0.515995 18.1368 0.5H2.86476ZM2.86476 0H18.1368C18.9143 0.0183534 19.6527 0.344655 20.1897 0.907192C20.7268 1.46973 21.0185 2.22248 21.0008 3V9C21.0185 9.77752 20.7268 10.5303 20.1897 11.0928C19.6527 11.6553 18.9143 11.9816 18.1368 12H2.86476C2.08725 11.9816 1.34884 11.6553 0.811804 11.0928C0.274768 10.5303 -0.0169496 9.77752 0.000761849 9V3C-0.0169496 2.22248 0.274768 1.46973 0.811804 0.907192C1.34884 0.344655 2.08725 0.0183534 2.86476 0V0Z" fill="var(--fill-0, black)"/>
</svg>
