<svg preserveAspectRatio="none" width="100%" height="100%" overflow="visible" style="display: block;" viewBox="0 0 5.00764 3.5052" fill="none" xmlns="http://www.w3.org/2000/svg">
<path id="Bar 1" d="M2.49958 3.50439C2.54895 3.50775 2.59847 3.50064 2.64485 3.4834C2.69122 3.46616 2.73344 3.43933 2.76863 3.40454C2.84463 3.33554 4.53746 1.63343 4.92146 1.29443C4.97004 1.22045 4.99977 1.13553 5.00764 1.04736C4.99524 0.950101 4.94753 0.860803 4.87361 0.796387C4.18572 0.27949 3.34855 0 2.48811 0C1.62766 0 0.790495 0.27949 0.10261 0.796387C0.0476169 0.86971 0.0130073 0.956312 0.00251209 1.04736C-0.00391074 1.09369 0.00205225 1.14098 0.0196019 1.18433C0.0371516 1.22767 0.0657701 1.26563 0.10261 1.29443C0.19361 1.39443 2.18656 3.32354 2.28156 3.40454C2.37656 3.48554 2.37858 3.50439 2.49958 3.50439Z" fill="var(--fill-0, black)"/>
</svg>
