<svg preserveAspectRatio="none" width="100%" height="100%" overflow="visible" style="display: block;" viewBox="0 0 10.0118 4.00134" fill="none" xmlns="http://www.w3.org/2000/svg">
<path id="Bar 2" d="M0 2.37744C0.00749567 2.46588 0.0461277 2.54881 0.109009 2.61145L1.26404 3.9115C1.32512 3.96924 1.40594 4.00134 1.48999 4.00134C1.57404 4.00134 1.65498 3.96924 1.71606 3.9115C2.58677 3.02463 3.77323 2.51875 5.01599 2.50452C6.25694 2.5273 7.44043 3.03185 8.31604 3.9115C8.37685 3.9678 8.45668 3.99902 8.53955 3.99902C8.62242 3.99902 8.70225 3.9678 8.76306 3.9115L9.92505 2.61145C9.97644 2.54386 10.006 2.46225 10.01 2.37744C10.0149 2.33362 10.0098 2.28925 9.99512 2.24768C9.9804 2.20611 9.95642 2.16844 9.92505 2.13745C9.2987 1.46318 8.54003 0.9254 7.69641 0.557617C6.85279 0.189834 5.9424 0 5.02209 0C4.10179 0 3.19128 0.189834 2.34766 0.557617C1.50404 0.9254 0.745367 1.46318 0.119019 2.13745C0.0370186 2.25445 0 2.24444 0 2.37744Z" fill="var(--fill-0, black)"/>
</svg>
