<svg preserveAspectRatio="none" width="100%" height="100%" overflow="visible" style="display: block;" viewBox="0 0 16.0014 4.99924" fill="none" xmlns="http://www.w3.org/2000/svg">
<path id="Bar 3" d="M0.0999756 3.20178C0.0369756 3.30178 0 3.32575 0 3.44775C0.00884255 3.53649 0.0435983 3.6206 0.0999756 3.6897C0.0999756 3.6897 1.06696 4.73379 1.31396 4.91479C1.38083 4.96605 1.46275 4.99377 1.547 4.99377C1.63124 4.99377 1.71305 4.96605 1.77991 4.91479C3.45523 3.30263 5.68986 2.40198 8.01489 2.40198C10.3399 2.40198 12.5747 3.30263 14.25 4.91479C14.25 4.91479 14.512 5.10479 14.7 4.91479C14.888 4.72479 15.8999 3.6897 15.8999 3.6897C15.9567 3.62085 15.9916 3.53661 16 3.44775C16.0046 3.40171 15.9978 3.35524 15.9803 3.31238C15.9629 3.26952 15.9353 3.23159 15.8999 3.20178C13.7828 1.14837 10.9494 0 8 0C5.05063 0 2.21712 1.14837 0.0999756 3.20178V3.20178Z" fill="var(--fill-0, black)"/>
</svg>
